<svg width="71.000000" height="71.000000" viewBox="0 0 71 71" fill="none" xmlns="http://www.w3.org/2000/svg" xmlns:xlink="http://www.w3.org/1999/xlink">
	<desc>
			Created with Pixso.
	</desc>
	<defs>
		<clipPath id="clip0_110">
			<rect width="37.000000" height="37.000000" transform="translate(17.000000 17.000000)" fill="white" fill-opacity="0"/>
		</clipPath>
	</defs>
	<rect x="0.250000" y="0.250000" rx="10.000000" width="70.500000" height="70.500000" stroke="#5956E8" stroke-opacity="1.000000" stroke-width="0.500000"/>
	<rect width="37.000000" height="37.000000" transform="translate(17.000000 17.000000)" fill="#FFFFFF" fill-opacity="0"/>
	<g clip-path="url(#clip0_110)">
		<path d="M26.6971 31.9696C26.8404 32.1141 27.0109 32.2288 27.1988 32.307C27.3866 32.3853 27.5882 32.4257 27.7917 32.4257C27.9952 32.4257 28.1967 32.3853 28.3846 32.307C28.5724 32.2288 28.7429 32.1141 28.8863 31.9696C29.0307 31.8263 29.1454 31.6558 29.2237 31.4679C29.302 31.28 29.3423 31.0785 29.3423 30.875C29.3423 30.6715 29.302 30.47 29.2237 30.2821C29.1454 30.0942 29.0307 29.9237 28.8863 29.7804L25.8029 26.6971C25.6563 26.5568 25.4834 26.4467 25.2942 26.3733C24.9188 26.2191 24.4978 26.2191 24.1225 26.3733C23.9333 26.4467 23.7604 26.5568 23.6138 26.6971L20.5304 29.7804C20.2401 30.0707 20.077 30.4645 20.077 30.875C20.077 31.2855 20.2401 31.6793 20.5304 31.9696C20.8207 32.2599 21.2145 32.423 21.625 32.423C22.0356 32.423 22.4293 32.2599 22.7196 31.9696L23.1667 31.5071L23.1667 39.4929L22.7196 39.0304C22.4293 38.7401 22.0356 38.577 21.625 38.577C21.2145 38.577 20.8207 38.7401 20.5304 39.0304C20.2401 39.3207 20.077 39.7145 20.077 40.125C20.077 40.5355 20.2401 40.9293 20.5304 41.2196L23.6138 44.3029C23.7604 44.4432 23.9333 44.5533 24.1225 44.6267C24.307 44.7083 24.5066 44.7504 24.7083 44.7504C24.9101 44.7504 25.1096 44.7083 25.2942 44.6267C25.4834 44.5533 25.6563 44.4432 25.8029 44.3029L28.8863 41.2196C29.03 41.0758 29.144 40.9052 29.2218 40.7174C29.2996 40.5295 29.3396 40.3282 29.3396 40.125C29.3396 39.9218 29.2996 39.7205 29.2218 39.5326C29.144 39.3448 29.03 39.1742 28.8863 39.0304C28.7425 38.8867 28.5719 38.7727 28.384 38.6948C28.1962 38.6171 27.9949 38.577 27.7917 38.577C27.5884 38.577 27.3871 38.6171 27.1993 38.6948C27.0115 38.7727 26.8408 38.8867 26.6971 39.0304L26.25 39.4929L26.25 31.5071L26.6971 31.9696ZM33.9583 29.3334L49.375 29.3334C49.7839 29.3334 50.176 29.1709 50.4651 28.8818C50.7542 28.5927 50.9167 28.2006 50.9167 27.7916C50.9167 27.3828 50.7542 26.9907 50.4651 26.7015C50.176 26.4125 49.7839 26.25 49.375 26.25L33.9583 26.25C33.5495 26.25 33.1573 26.4125 32.8682 26.7015C32.5791 26.9907 32.4167 27.3828 32.4167 27.7916C32.4167 28.2006 32.5791 28.5927 32.8682 28.8818C33.1573 29.1709 33.5495 29.3334 33.9583 29.3334ZM49.375 33.9584L33.9583 33.9584C33.5495 33.9584 33.1573 34.1207 32.8682 34.4099C32.5791 34.699 32.4167 35.0911 32.4167 35.5C32.4167 35.9089 32.5791 36.301 32.8682 36.5901C33.1573 36.8793 33.5495 37.0416 33.9583 37.0416L49.375 37.0416C49.7839 37.0416 50.176 36.8793 50.4651 36.5901C50.7542 36.301 50.9167 35.9089 50.9167 35.5C50.9167 35.0911 50.7542 34.699 50.4651 34.4099C50.176 34.1207 49.7839 33.9584 49.375 33.9584ZM49.375 41.6666L33.9583 41.6666C33.5495 41.6666 33.1573 41.8291 32.8682 42.1182C32.5791 42.4073 32.4167 42.7994 32.4167 43.2084C32.4167 43.6172 32.5791 44.0093 32.8682 44.2985C33.1573 44.5875 33.5495 44.75 33.9583 44.75L49.375 44.75C49.7839 44.75 50.176 44.5875 50.4651 44.2985C50.7542 44.0093 50.9167 43.6172 50.9167 43.2084C50.9167 42.7994 50.7542 42.4073 50.4651 42.1182C50.176 41.8291 49.7839 41.6666 49.375 41.6666Z" fill="#5956E8" fill-opacity="1.000000" fill-rule="nonzero"/>
	</g>
</svg>
